<?xml version="1.0" encoding="UTF-8"?>
<svg version="1.1" xmlns="http://www.w3.org/2000/svg" width="529" height="512">
<path d="M0 0 C174.57 0 349.14 0 529 0 C529 168.96 529 337.92 529 512 C354.43 512 179.86 512 0 512 C0 343.04 0 174.08 0 0 Z " fill="#FEFEFE" transform="translate(0,0)"/>
<path d="M0 0 C5.75557121 3.57701616 10.36796133 8.96227201 12.36328125 15.46875 C13.24030573 23.11271072 13.24561881 30.01840559 8.91015625 36.5703125 C4.55292977 41.91781772 -0.61814796 46.37075273 -7.63671875 47.46875 C-8.7040625 47.35273438 -9.77140625 47.23671875 -10.87109375 47.1171875 C-22.22172154 45.95477381 -30.53780594 49.54977458 -40.51171875 54.53125 C-41.18704651 54.86040405 -41.86237427 55.18955811 -42.5581665 55.52868652 C-44.51421742 56.49259627 -46.44834384 57.49004702 -48.37890625 58.50390625 C-49.51183105 59.0956665 -50.64475586 59.68742676 -51.81201172 60.29711914 C-55.30022721 62.97885439 -56.16346874 65.37835217 -57.63671875 69.46875 C-61.26647564 74.80662778 -65.46593967 78.34839419 -71.63671875 80.46875 C-78.71267485 81.3868055 -86.45824765 81.44434849 -92.63671875 77.46875 C-99.64132704 71.45953341 -99.64132704 71.45953341 -101.63671875 67.46875 C-103.80652417 66.73339556 -103.80652417 66.73339556 -106.44140625 66.21484375 C-107.41722656 66.00021484 -108.39304687 65.78558594 -109.3984375 65.56445312 C-110.42582031 65.34724609 -111.45320312 65.13003906 -112.51171875 64.90625 C-114.53020119 64.46861443 -116.54844168 64.02986106 -118.56640625 63.58984375 C-119.46601074 63.3983374 -120.36561523 63.20683105 -121.29248047 63.00952148 C-123.63671875 62.46875 -123.63671875 62.46875 -126.63671875 61.46875 C-131.41208564 61.10141409 -134.44044623 61.65741412 -138.71484375 63.78515625 C-141.01719727 64.60408281 -142.76519907 64.4352246 -145.19921875 64.34375 C-152.9155536 64.88318982 -157.81103083 71.66238033 -162.95117188 76.82666016 C-165.28401781 79.0993603 -167.77692659 81.12933324 -170.32421875 83.15625 C-172.09521846 84.59354502 -173.86604888 86.03104866 -175.63671875 87.46875 C-176.64476562 88.27957031 -177.6528125 89.09039062 -178.69140625 89.92578125 C-185.71255493 95.845664 -185.71255493 95.845664 -188.26953125 104.3046875 C-189.16880406 109.60465704 -192.75855796 113.59058921 -196.44921875 117.28125 C-203.46607596 122.09674024 -210.13199398 123.56292512 -218.63671875 122.46875 C-224.82259773 120.65191841 -229.68249502 116.48567135 -233.63671875 111.46875 C-233.63671875 110.80875 -233.63671875 110.14875 -233.63671875 109.46875 C-238.24579979 108.30316725 -242.8576024 107.14951572 -247.47265625 106.0078125 C-249.45654417 105.51363103 -251.43742356 105.0074124 -253.41796875 104.5 C-254.54203125 104.2215625 -255.66609375 103.943125 -256.82421875 103.65625 C-257.82839844 103.40230469 -258.83257812 103.14835937 -259.8671875 102.88671875 C-263.57138279 102.32769351 -266.260585 102.72194571 -269.55859375 104.51171875 C-275.05407087 107.04253058 -283.24998201 106.22497603 -288.94921875 104.46875 C-294.8555525 101.80339176 -299.97136051 96.68758375 -302.63671875 90.78125 C-304.57406188 84.25073574 -304.97444716 77.04092587 -302.5703125 70.62109375 C-298.92418338 64.03421744 -293.86844174 58.87932433 -286.63671875 56.46875 C-269.77307339 55.24848622 -269.77307339 55.24848622 -263.63671875 60.46875 C-262.66381408 61.77048558 -261.70654486 63.08399335 -260.76171875 64.40625 C-255.91176119 70.44900455 -248.0719117 71.34899758 -240.859375 72.96508789 C-238.65018955 73.46569747 -236.45919873 74.01731658 -234.265625 74.58203125 C-229.55105037 75.73403172 -226.31996815 76.3690927 -221.94921875 74.03125 C-218.48457794 72.39698547 -217.31408644 72.46991478 -213.63671875 72.59375 C-205.45962006 72.08268133 -200.72535179 65.61478521 -195.30615234 60.11083984 C-192.98585268 57.8285445 -190.49599029 55.80486162 -187.94921875 53.78125 C-187.07910156 53.07355469 -186.20898438 52.36585938 -185.3125 51.63671875 C-183.4237681 50.10643232 -181.52424389 48.58941994 -179.6171875 47.08203125 C-173.64634046 42.09719565 -170.65767107 38.62133706 -169.15625 30.94140625 C-167.82104193 24.58661897 -162.81141236 20.04047199 -157.63671875 16.46875 C-151.11655139 13.22527116 -142.86624062 13.13734853 -135.96875 15.30859375 C-131.88818954 17.39452569 -129.32197554 19.75902302 -126.6328125 23.4375 C-122.18589489 28.61934237 -117.13044644 29.61919779 -110.63671875 30.96875 C-109.05503906 31.34386719 -109.05503906 31.34386719 -107.44140625 31.7265625 C-98.26046842 34.0254208 -98.26046842 34.0254208 -89.19921875 32.41796875 C-86.20604147 31.30921558 -84.03123356 31.67750542 -80.91186523 32.0546875 C-65.96629151 33.54299015 -53.67643989 25.06751756 -41.22436523 17.84570312 C-38.63671875 16.46875 -38.63671875 16.46875 -36.63671875 16.46875 C-36.45109375 15.64375 -36.26546875 14.81875 -36.07421875 13.96875 C-33.25221786 7.09779132 -28.03170762 2.1022664 -21.63671875 -1.53125 C-14.45083174 -3.92654567 -6.84963706 -3.05884909 0 0 Z " fill="#4450AF" transform="translate(413.63671875,106.53125)"/>
<path d="M0 0 C16.5 0 33 0 50 0 C50 66 50 132 50 200 C33.5 200 17 200 0 200 C0 134 0 68 0 0 Z " fill="#55B9D1" transform="translate(376,204)"/>
<path d="M0 0 C16.5 0 33 0 50 0 C50 55.11 50 110.22 50 167 C33.5 167 17 167 0 167 C0 111.89 0 56.78 0 0 Z " fill="#54B9D1" transform="translate(243,237)"/>
<path d="M0 0 C16.5 0 33 0 50 0 C50 43.89 50 87.78 50 133 C33.5 133 17 133 0 133 C0 89.11 0 45.22 0 0 Z " fill="#55B9D1" transform="translate(310,271)"/>
<path d="M0 0 C16.83 0 33.66 0 51 0 C51 38.61 51 77.22 51 117 C34.17 117 17.34 117 0 117 C0 78.39 0 39.78 0 0 Z " fill="#57BAD2" transform="translate(109,287)"/>
<path d="M0 0 C16.5 0 33 0 50 0 C50 27.39 50 54.78 50 83 C33.5 83 17 83 0 83 C0 55.61 0 28.22 0 0 Z " fill="#55B9D1" transform="translate(176,321)"/>
</svg>
